
<svg version="1.1" id="icons" xmlns="http://www.w3.org/2000/svg" xmlns:xlink="http://www.w3.org/1999/xlink" x="0px" y="0px"
	 width="50px" height="50px" viewBox="0 0 400 100">

<view id='icon-email' viewBox='0 0 50 50' />
<view id='icon-facebook' viewBox='50 0 50 50' />
<view id='icon-github' viewBox='100 0 50 50' />
<view id='icon-linkedin' viewBox='150 0 50 50' />
<view id='icon-twitter' viewBox='200 0 50 50' />
<view id='icon-calendar' viewBox='250 0 50 50' />
<view id='icon-menu' viewBox='250 0 50 50' />
<view id='icon-search' viewBox='300 0 50 50' />
<view id='icon-slideshare' viewBox='0 50 50 50' />

<path fill="#653b9e" d="M3.789,8.396v31.419H45.68V8.396H3.789z M15.35,22.237l-8.07,9.969V15.698L15.35,22.237z M8.121,11.887
		h33.227L24.735,25.35L8.121,11.887z M18.059,24.434l6.676,5.41l6.685-5.418l9.795,11.899H8.437L18.059,24.434z M34.132,22.227
		l8.058-6.529v16.316L34.132,22.227z"/>


<path fill="#653b9e" d="M70.247,18.694h-4.542v6.056h4.542v18.167h7.569V24.75h5.515l0.541-6.056h-6.056v-2.523
	c0-1.446,0.29-2.018,1.688-2.018h4.367V6.583h-5.766c-5.443,0-7.859,2.396-7.859,6.987V18.694z"/>

<path fill="#653b9e" d="M125.32,4.421c-10.975,0-19.875,8.979-19.875,20.055c0,8.86,5.695,16.378,13.594,19.03
	c0.992,0.186,1.313-0.436,1.313-0.962v-3.735c-5.529,1.213-6.68-2.366-6.68-2.366c-0.905-2.317-2.208-2.935-2.208-2.935
	c-1.804-1.245,0.137-1.219,0.137-1.219c1.996,0.141,3.047,2.068,3.047,2.068c1.772,3.065,4.648,2.179,5.783,1.667
	c0.177-1.295,0.692-2.182,1.262-2.682c-4.415-0.509-9.055-2.229-9.055-9.912c0-2.191,0.777-3.979,2.047-5.383
	c-0.205-0.506-0.886-2.547,0.194-5.308c0,0,1.669-0.539,5.468,2.056c1.585-0.444,3.284-0.667,4.974-0.674
	c1.688,0.007,3.391,0.23,4.979,0.674c3.794-2.594,5.46-2.056,5.46-2.056c1.082,2.763,0.401,4.803,0.196,5.308
	c1.275,1.404,2.045,3.194,2.045,5.383c0,7.702-4.649,9.399-9.076,9.896c0.713,0.622,1.364,1.841,1.364,3.714v5.504
	c0,0.532,0.317,1.158,1.326,0.96c7.894-2.655,13.581-10.17,13.581-19.028C145.196,13.401,136.297,4.421,125.32,4.421z"/>

<path fill="#653b9e" d="M163.733,9.051c0,2.421-1.946,4.384-4.349,4.384c-2.403,0-4.349-1.962-4.349-4.384
	c0-2.42,1.946-4.384,4.349-4.384C161.787,4.667,163.733,6.631,163.733,9.051z M163.768,16.942H155V45h8.768V16.942z M177.766,16.942
	h-8.712V45h8.712V30.272c0-8.19,10.573-8.861,10.573,0V45h8.748V27.234c0-13.818-15.646-13.316-19.321-6.514V16.942z"/>

<path fill="#653b9e" d="M246.001,13.321c-1.558,0.692-3.231,1.157-4.988,1.367c1.795-1.074,3.173-2.777,3.819-4.805
	c-1.677,0.995-3.537,1.718-5.516,2.108c-1.583-1.688-3.843-2.743-6.34-2.743c-5.606,0-9.727,5.231-8.463,10.663
	c-7.215-0.361-13.615-3.819-17.899-9.073c-2.275,3.903-1.18,9.01,2.686,11.596c-1.42-0.046-2.762-0.436-3.931-1.087
	c-0.095,4.023,2.788,7.787,6.967,8.626c-1.224,0.332-2.563,0.408-3.925,0.148c1.105,3.45,4.312,5.96,8.114,6.031
	c-3.649,2.862-8.252,4.141-12.858,3.598c3.845,2.465,8.41,3.901,13.314,3.901c16.125,0,25.236-13.618,24.686-25.834
	C243.363,16.592,244.837,15.062,246.001,13.321z"/>

<path fill="#653b9e" d="M289.555,38.556h-6.777v-6.778h6.777V38.556z M279.388,21.611h-6.776v6.778h6.776V21.611z M289.555,21.611
	h-6.777v6.778h6.777V21.611z M269.222,31.778h-6.777v6.778h6.777V31.778z M279.388,31.778h-6.776v6.778h6.776V31.778z
	 M269.222,21.611h-6.777v6.778h6.777V21.611z M296.333,8.056v37.278h-40.667V8.056h5.083V9.75c0,1.869,1.52,3.389,3.389,3.389
	c1.871,0,3.39-1.52,3.39-3.389V8.056h16.944V9.75c0,1.869,1.519,3.389,3.39,3.389c1.869,0,3.389-1.52,3.389-3.389V8.056H296.333z
	 M292.944,18.222h-33.89v23.722h33.89V18.222z M289.555,6.361c0-0.935-0.758-1.694-1.693-1.694c-0.938,0-1.695,0.76-1.695,1.694
	V9.75c0,0.935,0.758,1.694,1.695,1.694c0.936,0,1.693-0.76,1.693-1.694V6.361z M265.833,9.75c0,0.935-0.758,1.694-1.695,1.694
	c-0.936,0-1.693-0.76-1.693-1.694V6.361c0-0.935,0.758-1.694,1.693-1.694c0.938,0,1.695,0.76,1.695,1.694V9.75z"/>
<path fill="#653b9e" d="M312,43.667h-7v-7h7V43.667z M312,22.667h-7v7h7V22.667z M312,8.667h-7v7h7V8.667z M317.25,8.667v7H347v-7
	H317.25z M317.25,29.667H347v-7h-29.75V29.667z M317.25,43.667H347v-7h-29.75V43.667z"/>

<path fill="#653b9e" d="M394.639,38.521l-8.318-8.318c1.614-2.542,2.546-5.552,2.546-8.775C388.866,12.37,381.498,5,372.439,5
	c-9.057,0-16.424,7.371-16.424,16.428s7.367,16.427,16.427,16.427c3.064,0,5.936-0.845,8.393-2.311l8.391,8.39
	C392.808,47.514,398.223,42.104,394.639,38.521z M361.107,21.428c0-6.25,5.086-11.335,11.335-11.335s11.333,5.084,11.333,11.335
	c0,6.25-5.084,11.333-11.333,11.333S361.107,27.675,361.107,21.428L361.107,21.428z M364.466,18.479
	c3.316-7.686,14.479-6.795,16.582,1.251C376.814,14.761,369.361,14.226,364.466,18.479z"/>

<path fill="#653b9e" d="M46.286,69.381c-1.667,3.194-5.146,4.166-8.547,5.951c0,2.516,0,5.921,0,6.896
		c0,0.971-1.252,6.628-6.03,6.628c-4.778,0-6.355-2.735-6.355-3.87c0-0.553,0-3.501,0-6.39c-0.47-0.112-0.931-0.272-1.376-0.505
		c0,2.599,0,5.761,0,6.895c0,1.137-1.78,2.758-4.128,2.758s-6.881-3.323-6.881-5.516c0-2.191,0-7.467,0-7.467
		s-6.282-2.459-7.74-4.244c-1.459-1.787-2.188-2.516-1.782-3.567c0.389-1.02,5.101,2.919,7.854,3.567
		c2.755,0.649,7.531,0.975,9.556,0.894c2.026-0.081,3.16,0.73,4.292,1.784c0.061,0.056,0.131,0.115,0.204,0.175
		c0-0.485,0-0.794,0-0.794c0-0.974,2.592-1.38,4.129-1.38c1.54,0,6.071,0,6.88,0s7.088-2.058,8.547-3.683
		C46.366,65.893,47.853,66.378,46.286,69.381z M31.778,68.944c2.659,0,4.817-2.16,4.817-4.826c0-2.667-2.158-4.827-4.817-4.827
		c-2.66,0-4.817,2.16-4.817,4.827C26.961,66.784,29.119,68.944,31.778,68.944z M19.085,68.944c2.661,0,4.817-2.16,4.817-4.826
		c0-2.667-2.156-4.827-4.817-4.827c-2.66,0-4.817,2.16-4.817,4.827C14.268,66.784,16.423,68.944,19.085,68.944z"/>

</svg>
